# xmcd CD database file
#
# Track frame offsets:
#	150
#	10497
#	21662
#	34845
#	48907
#	62490
#	76857
#	90567
#	104870
#	117000
#	127797
#	140642
#	154800
#	167542
#	178852
#	192145
#	206857
#	227160
#
# Disc length: 3497 seconds
#
# Revision: 4
# Processed by: cddbd v1.5.2PL0 Copyright (c) Steve Scherf et al.
# Submitted via: CDex 1.70beta2
#
DISCID=f40da712
DTITLE=Cole , Nat King  - Rockin' Boppin' and Blues
DYEAR=1900
DGENRE=
TTITLE0=I'm An Errand Boy for Rhythm (Cole)
TTITLE1=Straighten Up and Fly Right (Cole-Mills)
TTITLE2=Gee Baby, Ain't I Good To You (Redman-Razaf)
TTITLE3=Easy Listenin' Blues (Robinson)
TTITLE4=(Get Your Kicks On) Route 66 (Troup)
TTITLE5=The Frim Fram Sauce (Ricardel-Evans)
TTITLE6=Baby, Baby All the Time (Troup)
TTITLE7=Chant of the Blues (Cole)
TTITLE8=I Think You Get What I Mean (Black)
TTITLE9=Ooh, Kickeroonie (Dickinson-May)
TTITLE10=Blues in My Shower (Cole)
TTITLE11=If I Were You, Baby, I'd Love Me (Rodgers)
TTITLE12=Walkin' (Williams-Steele)
TTITLE13=Send for Me (jones)
TTITLE14=Beale Street Blues (Handy)
TTITLE15=Wee Baby Blues (Johnson-Turner)
TTITLE16=Joe Turner Blues (Live) (Handy)
TTITLE17=Mr. Cole Won't Rock and Roll (Live)
EXTD=
EXTT0=
EXTT1=
EXTT2=
EXTT3=
EXTT4=
EXTT5=
EXTT6=
EXTT7=
EXTT8=
EXTT9=
EXTT10=
EXTT11=
EXTT12=
EXTT13=
EXTT14=
EXTT15=
EXTT16=
EXTT17=
PLAYORDER=
